<svg xmlns="http://www.w3.org/2000/svg" viewBox="0 0 512 512" width="512" height="512">
  <defs>
    <linearGradient id="mintGrad" x1="0%" y1="0%" x2="100%" y2="100%">
      <stop offset="0%" stop-color="#E8F8EE" />
      <stop offset="100%" stop-color="#50C878" />
    </linearGradient>
  </defs>
  <!-- Rounded background -->
  <rect width="512" height="512" rx="128" fill="url(#mintGrad)"/>
  <!-- Milk Bottle/Glass Silhouette -->
  <path d="M180 180 C180 130, 200 100, 240 90 L240 70 L220 70 A10 10 0 0 1 220 50 L292 50 A10 10 0 0 1 292 70 L272 70 L272 90 C312 100, 332 130, 332 180 L320 400 A20 20 0 0 1 300 420 L212 420 A20 20 0 0 1 192 400 Z" fill="#FFFFFF"/>
  <!-- Cow patch / decoration in Mint Green -->
  <path d="M220 220 Q240 210 260 230 T300 220 Q310 260 280 280 T230 270 Q210 240 220 220 Z" fill="#38A85A"/>
  <!-- Droplet outline or splash -->
  <path d="M256 120 C256 120 240 145 240 155 C240 164 247 170 256 170 C265 170 272 164 272 155 C272 145 256 120 256 120 Z" fill="#50C878"/>
</svg>
